PathFileType	4	(X/Y/Z)	RBDS018static.trc
DataRate	CameraRate	NumFrames	NumMarkers	Units	OrigDataRate	OrigDataStartFrame	OrigNumFrames
150.000000	150.000000	4	48	mm	150.000000	37	150
Frame#	Time	L.Ankle			L.Ankle.Medial			L.ASIS			L.GTR			L.Heel.Bottom			L.Heel.Lateral			L.Heel.Top			L.HF			L.Iliac.Crest			L.Knee			L.Knee.Medial			L.MT1			L.MT2			L.MT5			L.PSIS			L.Shank.Bottom.Lateral			L.Shank.Bottom.Medial			L.Shank.Top.Lateral			L.Shank.Top.Medial			L.Thigh.Bottom.Lateral			L.Thigh.Bottom.Medial			L.Thigh.Top.Lateral			L.Thigh.Top.Medial			L.TT			R.Ankle			R.Ankle.Medial			R.ASIS			R.GTR			R.Heel.Bottom			R.Heel.Lateral			R.Heel.Top			R.HF			R.Iliac.Crest			R.Knee			R.Knee.Medial			R.MT1			R.MT2			R.MT5			R.PSIS			R.Shank.Bottom.Lateral			R.Shank.Bottom.Medial			R.Shank.Top.Lateral			R.Shank.Top.Medial			R.Thigh.Bottom.Lateral			R.Thigh.Bottom.Medial			R.Thigh.Top.Lateral			R.Thigh.Top.Medial			R.TT			
		X1	Y1	Z1	X2	Y2	Z2	X3	Y3	Z3	X4	Y4	Z4	X5	Y5	Z5	X6	Y6	Z6	X7	Y7	Z7	X8	Y8	Z8	X9	Y9	Z9	X10	Y10	Z10	X11	Y11	Z11	X12	Y12	Z12	X13	Y13	Z13	X14	Y14	Z14	X15	Y15	Z15	X16	Y16	Z16	X17	Y17	Z17	X18	Y18	Z18	X19	Y19	Z19	X20	Y20	Z20	X21	Y21	Z21	X22	Y22	Z22	X23	Y23	Z23	X24	Y24	Z24	X25	Y25	Z25	X26	Y26	Z26	X27	Y27	Z27	X28	Y28	Z28	X29	Y29	Z29	X30	Y30	Z30	X31	Y31	Z31	X32	Y32	Z32	X33	Y33	Z33	X34	Y34	Z34	X35	Y35	Z35	X36	Y36	Z36	X37	Y37	Z37	X38	Y38	Z38	X39	Y39	Z39	X40	Y40	Z40	X41	Y41	Z41	X42	Y42	Z42	X43	Y43	Z43	X44	Y44	Z44	X45	Y45	Z45	X46	Y46	Z46	X47	Y47	Z47	X48	Y48	Z48	

38	0.2466666666666667	710.9871826171875	105.5806427001953	1044.403930664063	737.9627685546875	116.44873046875	1128.132080078125	860.1900634765625	1073.546875	1128.979248046875	797.019287109375	970.5286254882813	1049.058227539063	641.07568359375	42.13206481933594	1087.318359375	671.858642578125	54.06271362304688	1040.971313476563	650.8080444335938	91.92120361328125	1085.222778320313	733.9197387695313	498.0829772949219	1031.704467773438	783.6465454101563	1140.747192382813	1081.713500976563	747.3233032226563	564.9548950195313	1043.011596679688	746.6854858398438	531.2789306640625	1170.986328125	863.5978393554688	56.3350830078125	1128.31640625	874.1166381835938	69.42236328125	1074.701293945313	839.4683227539063	54.02719116210938	1014.873962402344	681.4151611328125	1080.336669921875	1182.640258789063	689.9379272460938	202.7882843017578	1034.500610351563	660.073974609375	201.8070373535156	1076.263916015625	680.1612548828125	282.5658569335938	1024.56787109375	650.4915161132813	285.89501953125	1068.747680664063	749.0358276367188	675.1974487304688	1033.097900390625	692.446044921875	680.9697265625	1079.348754882813	755.6715698242188	784.5453491210938	1028.681030273438	702.1953125	789.7215576171875	1073.8310546875	791.125732421875	463.6581420898438	1087.063232421875	710.3121337890625	107.068229675293	1414.384521484375	733.2247924804688	123.4628982543945	1330.640747070313	853.7706298828125	1075.681884765625	1363.005493164063	790.629638671875	970.5701293945313	1428.75537109375	639.6416625976563	43.00966262817383	1374.40576171875	662.748046875	59.99705123901367	1410.441162109375	651.00732421875	92.91680908203125	1373.382568359375	741.56298828125	490.7984924316406	1438.2744140625	778.4019775390625	1143.013793945313	1388.496948242188	742.982421875	555.2140502929688	1432.009765625	742.290771484375	533.4212646484375	1300.043579101563	861.6443481445313	59.89346694946289	1325.94677734375	875.1300048828125	69.55587768554688	1377.269409179688	838.161376953125	55.87844848632813	1437.701049804688	679.195068359375	1084.619140625	1291.68017578125	705.6735229492188	211.6699829101563	1436.171508789063	662.4446411132813	214.7247009277344	1400.788330078125	699.1015625	291.9485473632813	1449.199462890625	658.1425170898438	293.9811096191406	1413.881713867188	748.94873046875	668.7659912109375	1443.59521484375	689.891845703125	674.8187255859375	1400.87353515625	753.7745361328125	779.3682861328125	1448.5791015625	698.4697875976563	784.3255615234375	1408.416870117188	794.940673828125	468.4386901855469	1387.821411132813	
39	0.2533333333333334	710.9794311523438	105.5805740356445	1044.397827148438	737.9624633789063	116.4423294067383	1128.124389648438	860.0852661132813	1073.5771484375	1128.960205078125	796.9381103515625	970.5538330078125	1049.071166992188	641.0784912109375	42.12566757202148	1087.315307617188	671.8590698242188	54.05425262451172	1040.971557617188	650.8045043945313	91.92123413085938	1085.228149414063	733.9619750976563	498.0674438476563	1031.68701171875	783.5347290039063	1140.757080078125	1081.71826171875	747.3536987304688	564.9470825195313	1043.005493164063	746.756103515625	531.2615356445313	1170.968139648438	863.600830078125	56.34466552734375	1128.317138671875	874.1138916015625	69.41612243652344	1074.694946289063	839.4674682617188	54.03878784179688	1014.876647949219	681.3358154296875	1080.30859375	1182.629760742188	689.9371948242188	202.7758178710938	1034.517822265625	660.0775756835938	201.8099060058594	1076.295043945313	680.1658935546875	282.5580444335938	1024.587158203125	650.501708984375	285.8915710449219	1068.763916015625	749.0386352539063	675.201416015625	1033.09326171875	692.4411010742188	680.9473266601563	1079.34375	755.6351928710938	784.5523681640625	1028.674926757813	702.17138671875	789.7156982421875	1073.831665039063	791.1732788085938	463.6610107421875	1087.048828125	710.3015747070313	107.0692367553711	1414.386596679688	733.2304077148438	123.4505462646484	1330.639404296875	853.6754760742188	1075.697143554688	1362.99755859375	790.5635375976563	970.5621948242188	1428.736083984375	639.634765625	42.99745178222656	1374.4169921875	662.7433471679688	59.99300003051758	1410.441528320313	650.9957275390625	92.90345001220703	1373.382690429688	741.5811767578125	490.799560546875	1438.264038085938	778.283447265625	1143.010131835938	1388.474975585938	742.9950561523438	555.2007446289063	1431.992919921875	742.3192749023438	533.3989868164063	1300.037353515625	861.63671875	59.88610458374023	1325.945678710938	875.1060180664063	69.56676483154297	1377.276611328125	838.1676025390625	55.84441757202148	1437.672729492188	679.084716796875	1084.594848632813	1291.662963867188	705.6795043945313	211.6587982177734	1436.165893554688	662.4410400390625	214.7197875976563	1400.786254882813	699.1049194335938	291.9384155273438	1449.1953125	658.144775390625	293.9728088378906	1413.876586914063	748.9389038085938	668.75537109375	1443.570556640625	689.879638671875	674.7958374023438	1400.867065429688	753.7356567382813	779.3583374023438	1448.566162109375	698.438232421875	784.3026733398438	1408.414306640625	794.9443969726563	468.4172058105469	1387.804565429688	
40	0.26	710.972412109375	105.5835723876953	1044.387451171875	737.9508666992188	116.4538726806641	1128.12646484375	859.9761352539063	1073.623901367188	1128.9306640625	796.843994140625	970.5706787109375	1049.048828125	641.0744018554688	42.11619186401367	1087.307373046875	671.8439331054688	54.05549240112305	1040.971801757813	650.8043212890625	91.9151611328125	1085.221435546875	733.9829711914063	498.0781555175781	1031.666259765625	783.412841796875	1140.792724609375	1081.710083007813	747.3755493164063	564.9464111328125	1042.984497070313	746.7953491210938	531.2764282226563	1170.939086914063	863.5869750976563	56.35995864868164	1128.321044921875	874.0965576171875	69.43248748779297	1074.696533203125	839.4558715820313	54.04227447509766	1014.868591308594	681.2451782226563	1080.292846679688	1182.6259765625	689.9384155273438	202.7798156738281	1034.52685546875	660.0880126953125	201.8089141845703	1076.295288085938	680.1661987304688	282.5594177246094	1024.58349609375	650.5123901367188	285.8869323730469	1068.772216796875	749.0341796875	675.2020263671875	1033.081176757813	692.4342041015625	680.9447021484375	1079.339599609375	755.5963745117188	784.5703125	1028.660522460938	702.137451171875	789.7166137695313	1073.828369140625	791.2039184570313	463.6657409667969	1087.039184570313	710.2977905273438	107.0624694824219	1414.391723632813	733.2044677734375	123.4646301269531	1330.641235351563	853.5823974609375	1075.7001953125	1362.981689453125	790.4800415039063	970.5601196289063	1428.723510742188	639.6361694335938	42.99650955200195	1374.413696289063	662.7406616210938	59.97182464599609	1410.447021484375	650.9989624023438	92.90582275390625	1373.38623046875	741.6064453125	490.7950439453125	1438.259643554688	778.1572875976563	1142.994018554688	1388.45556640625	743.0033569335938	555.18896484375	1431.987060546875	742.3125	533.4008178710938	1300.014404296875	861.6203002929688	59.83320236206055	1326.363647460938	875.1083984375	69.57204437255859	1377.277954101563	838.1634521484375	55.88361358642578	1437.703735351563	678.9851684570313	1084.566284179688	1291.6572265625	705.6814575195313	211.6635437011719	1436.163940429688	662.439697265625	214.7081451416016	1400.788696289063	699.1163940429688	291.9376525878906	1449.188354492188	658.1463623046875	293.9681396484375	1413.882446289063	748.929931640625	668.740478515625	1443.559448242188	689.8705444335938	674.7775268554688	1400.852416992188	753.69677734375	779.3505859375	1448.549682617188	698.4061279296875	784.276123046875	1408.408325195313	794.9492797851563	468.4063415527344	1387.782958984375	
41	0.2666666666666667	710.9695434570313	105.5777359008789	1044.390502929688	737.9475708007813	116.4469985961914	1128.117065429688	859.8980712890625	1073.658325195313	1128.924926757813	796.7703857421875	970.59375	1049.067260742188	641.0770874023438	42.11941528320313	1087.302734375	671.8572998046875	54.05723571777344	1040.981567382813	650.8048706054688	91.91201782226563	1085.218139648438	734.0176391601563	498.0528869628906	1031.663696289063	783.3074340820313	1140.809326171875	1081.709716796875	747.3936767578125	564.9683227539063	1042.981689453125	746.8468017578125	531.2730102539063	1170.931518554688	863.5889282226563	56.37371444702148	1128.338989257813	874.1033325195313	69.44991302490234	1074.704467773438	839.4549560546875	54.05191802978516	1014.874145507813	681.1544799804688	1080.275634765625	1182.620361328125	689.9424438476563	202.7824401855469	1034.529052734375	660.0927734375	201.8066101074219	1076.325439453125	680.1781005859375	282.5573120117188	1024.5986328125	650.5305786132813	285.8883666992188	1068.788940429688	749.0339965820313	675.2210083007813	1033.079956054688	692.4263916015625	680.9446411132813	1079.3291015625	755.561767578125	784.5782470703125	1028.658203125	702.1162719726563	789.7127685546875	1073.838623046875	791.22607421875	463.6672973632813	1087.049682617188	710.2994384765625	107.0492324829102	1414.408813476563	733.2064819335938	123.4703369140625	1330.627807617188	853.4913940429688	1075.725830078125	1363.002075195313	790.40478515625	970.5531005859375	1428.71533203125	639.6361694335938	42.99415588378906	1374.408813476563	662.7380981445313	59.97821044921875	1410.448364257813	650.9986572265625	92.90464019775391	1373.3779296875	741.658203125	490.7793273925781	1438.235717773438	778.0411987304688	1142.984985351563	1388.451904296875	743.0274047851563	555.1798095703125	1431.963623046875	742.3529663085938	533.3905029296875	1300.01123046875	861.62548828125	59.84413528442383	1326.376220703125	875.1030883789063	69.58291625976563	1377.295776367188	838.1621704101563	55.8999137878418	1437.723999023438	678.8684692382813	1084.544799804688	1291.636474609375	705.686279296875	211.6598663330078	1436.156982421875	662.4468994140625	214.7037048339844	1400.79638671875	699.127685546875	291.9350280761719	1449.1865234375	658.1572265625	293.969970703125	1413.885620117188	748.91845703125	668.7311401367188	1443.539672851563	689.8564453125	674.7487182617188	1400.829223632813	753.6689453125	779.3432006835938	1448.544677734375	698.3704223632813	784.2521362304688	1408.386962890625	794.9784545898438	468.4085693359375	1387.785888671875	
